<svg xmlns="http://www.w3.org/2000/svg" viewBox="0 0 128 128">
  <defs>
    <linearGradient id="bg" x1="0%" y1="0%" x2="100%" y2="100%">
      <stop offset="0%" stop-color="#2563eb"/>
      <stop offset="100%" stop-color="#7c3aed"/>
    </linearGradient>
  </defs>

  <!-- Background -->
  <rect width="128" height="128" rx="28" fill="url(#bg)"/>

  <!-- Letter S -->
  <path
    d="M84 40c-6-7-14-10-24-10-13 0-24 7-24 20 0 14 12 18 22 21 9 3 17 4 17 11 0 6-5 9-12 9-8 0-15-3-22-10l-10 12c8 9 19 14 32 14 17 0 31-9 31-24 0-16-13-20-24-23-8-2-15-4-15-10 0-5 5-8 11-8 7 0 12 2 18 8z"
    fill="white"
  />
</svg>