<svg xmlns="http://www.w3.org/2000/svg" version="1.1" xmlns:xlink="http://www.w3.org/1999/xlink" xmlns:svgjs="http://svgjs.dev/svgjs" width="2000" height="2250" viewBox="0 0 2000 2250"><g transform="matrix(1,0,0,1,0.00014687500004129106,0)"><svg viewBox="0 0 320 360" data-background-color="#ffffff" preserveAspectRatio="xMidYMid meet" height="2250" width="2000" xmlns="http://www.w3.org/2000/svg" xmlns:xlink="http://www.w3.org/1999/xlink"><g id="tight-bounds" transform="matrix(1,0,0,1,0.000023499999997511622,0)"><svg viewBox="0 0 320 360" height="360" width="320"><g><svg></svg></g><g><svg viewBox="0 0 320 360" height="360" width="320"><g><path transform="translate(-74.99272,-51.79039) scale(4.65793,4.65793)" d="M20.6 59.9l0.8 1-0.4-1.3c-0.1-0.6-0.8 0.1-0.4 0.3M21.5 59.3c0.3 0.5 0.6 1 0.6 1.5 0 0.7 0.6 1 1.1 1.2-0.7-0.8-1.1-3-1.7-2.7M59.9 16.9c1.7 0 3.3-0.2 5.1 0.2 4.4 1.1 8.1 3.3 10.6 6.4l7 11.2c0.3 2.8 0.9 5.9 0.8 9.3 0.7 0 0.6-1 1.4-1.2-0.8 2-1.2 4.5-1.4 7.4-0.5-1.6 0-4 0.1-5.3-0.7 1.1-1.1 0.3-1.1-0.2 0.1-0.8-0.3-0.7-0.6-1-1.1-1-1.8-2.1-2.6-3.8 0.5-1.3 0.6-3.2-1-4.2-0.5-0.3-1.1-0.8-1.4-1.6-0.4-1.1-1.1-2.4-0.9-4.1 0.1-0.5-1.5 1.1-2.4 0.4-3.9-2.7-7.8-5.8-12.5-8.4-2.5 0-4.3-0.9-5.2-2-0.8-1-0.2-2.3 1-2.4 0.7 0 1.5-0.2 2.1 0.2 0.1-0.4 0.5-0.9 1-0.9M50 14.6l0.2 0.1c1 0.2 1.5 1.6 2.6 1.1 0 0.7 0.1 1.4-0.1 1.9-0.3 0.8-1.2 0.8-1.9 0.8-6.7-0.4-10.6 2.4-14.7 4.8-1.1 0.7-2.3 1.2-3.2 2.1-4.3 4-9 7.7-10.1 15.1l-0.9 8.2c-0.1 0.9-1.1 1.8-0.9 2.9l0.7 4.9c-0.7-0.7-1.1 0.2-0.9 0.6 0.1 0.3 0.5 1.3 1.1 0.4 0.8 1.5 1.6 4.4 2.7 5.7 3.4 4 7.8 7.6 11.4 11.2 0.9-0.2 1.6-0.2 1.8-0.8 0.3 0.6-0.3 1.2-0.8 1.3 1.6 1 3.4 1.9 5.8 2.1 3.1 0.2 6 0.7 8.7 1.4 1.4-0.4 2.8-0.6 4.3-0.7 0.5 0 0.8-0.8 1.4-1l0.1-1c0.6 0.9 0.5-0.3 0.1-0.9 0.7 0.6 0.9 1.1 1.2 1.5 0-0.3 0.8-1.4 0.8-0.1l0.2-1.3c0.3-0.2 0.4 1.1 0.7 0.2 0.3-0.9 0.9-0.2 1.5-0.5-0.2 0.4-0.1 1.2 0.6 0.7l0.8-0.7c0.5 1.2 1.3 0.7 1.7 0.5 4.4-2.8 8.8-6.1 13-9.4l-0.1 1.3 0.5-1.6c0.5 0.5 0.9 0.1 1.1-0.2 0.6-1 1.4-2 2.7-2.9-1.6 4.3-3.5 7.7-5.9 10.5l-1 1.2c0 0.7-0.2 1.6-1 1.7-0.4 0.1-1.2-0.2-1.8 0.4-0.3 0.4 0.7 1.2-0.1 0.6-0.7-0.5-1.4 0-2.2 0.2-0.6 0.2 0.4 0.8 0.6 1.2 0.2 0.4 0.4 0.8 0.3 1.3l-1.1-1.2c-1.3 0.7-2.1 2-3.2 3-0.5 0.4-0.3 1.1-0.3 1.7-0.7 0-1.5-0.2-1.9 0.2-0.3 0.4-0.2 1-0.2 1.6-1-0.1-1.1-1.6-2-1.3-0.9 0.2-1.9 0.3-2.7 0.8 0.6 1.2-1 0.5-0.8 0.7-1.5-0.9-2.8-1.6-4.4-1-3.4-1.1-7.6-0.6-10.7-0.2 0-0.5 0.1-1-0.1-1.1-0.2 0.5-0.8 0.3-0.7 0.3-1.9-1.3-3.8-2.1-5.8-3.2-1.8 0.2-3.5-0.7-4-1.2-1.4-1.3-3-0.6-4.3-0.9-2.8-0.7-3.8-3.6-4.1-5.6-0.2-1-1-1.4-1.3-1.3-1.3-4.2-3.3-8-4.9-11.9-0.4-1-0.3-2-0.3-3.1 0.5 0.2 1 0.1 0.9-0.6-0.5-3.3-1.7-5.8-3-8.2 0.7-3.4 0.8-7.4 2.4-10.4 1.4-2.7 4-4.1 5.8-6.4 0.6-0.8 0.6-1.9 1.2-2.6 2-2 4-4.1 6.2-5.9 1-0.8 2.2 0 3.7-0.3 0.5-1.8 2.5-3.4 4.4-2.9 0.8 0.2 2.4-1.9 2.9-2.1 0.8-0.3 0.4 0.8 0.4 1.5 1.9-1.5 4.5-2.3 6.9-3.2" fill="#ff5c40" fill-rule="nonzero" stroke="none" stroke-width="1" stroke-linecap="butt" stroke-linejoin="miter" stroke-miterlimit="10" stroke-dasharray="" stroke-dashoffset="0" font-family="none" font-weight="none" font-size="none" text-anchor="none" style="mix-blend-mode: normal" data-fill-palette-color="tertiary"></path></g><g transform="matrix(1,0,0,1,124.88872539396672,90)"><svg viewBox="0 0 70.22254921206657 180" height="180" width="70.22254921206657"><g><svg viewBox="0 0 70.22254921206657 180" height="180" width="70.22254921206657"><g><svg viewBox="0 0 126.51275454545456 324.28751268216257" height="180" width="70.22254921206657"><g transform="matrix(1,0,0,1,0,104.62900653168991)"><svg viewBox="0 0 126.51275454545456 219.65850615047268" height="219.65850615047268" width="126.51275454545456"><g id="textblocktransform"><svg viewBox="0 0 126.51275454545456 219.65850615047268" height="219.65850615047268" width="126.51275454545456" id="textblock"><g><svg viewBox="0 0 126.51275454545456 178.88760000000002" height="178.88760000000002" width="126.51275454545456"><g transform="matrix(1,0,0,1,0,0)"><svg width="126.51275454545456" viewBox="1.98 -36.04 25.83 36.53" height="178.88760000000002" data-palette-color="#ff5c40"><path d="M23.05-8.98L23.05-8.98Q23.05-10.67 22.34-11.84 21.63-13.01 19.8-13.96 17.97-14.92 14.6-15.89L14.6-15.89Q11.96-16.65 9.85-17.61 7.74-18.58 6.23-19.82 4.71-21.07 3.91-22.68 3.1-24.29 3.1-26.37L3.1-26.37Q3.1-29.15 4.6-31.34 6.1-33.52 8.81-34.78 11.52-36.04 15.16-36.04L15.16-36.04Q19.19-36.04 22-34.51 24.8-32.98 26.27-30.53 27.73-28.08 27.73-25.29L27.73-25.29 22.97-25.29Q22.97-27.29 22.13-28.86 21.29-30.42 19.56-31.31 17.82-32.2 15.16-32.2L15.16-32.2Q12.67-32.2 11.05-31.45 9.42-30.69 8.64-29.39 7.86-28.1 7.86-26.44L7.86-26.44Q7.86-24.95 8.72-23.79 9.57-22.63 11.4-21.7 13.23-20.78 16.14-19.95L16.14-19.95Q20.17-18.82 22.75-17.33 25.34-15.84 26.57-13.82 27.81-11.79 27.81-9.03L27.81-9.03Q27.81-6.15 26.27-4 24.73-1.86 21.95-0.68 19.17 0.49 15.41 0.49L15.41 0.49Q12.94 0.49 10.56-0.2 8.18-0.88 6.24-2.25 4.3-3.61 3.14-5.63 1.98-7.64 1.98-10.3L1.98-10.3 6.71-10.3Q6.71-8.47 7.42-7.15 8.13-5.83 9.35-4.98 10.57-4.13 12.13-3.72 13.7-3.32 15.41-3.32L15.41-3.32Q17.87-3.32 19.57-4.02 21.26-4.71 22.16-5.98 23.05-7.25 23.05-8.98Z" opacity="1" transform="matrix(1,0,0,1,0,0)" fill="#ff5c40" class="wordmark-text-0" data-fill-palette-color="primary" id="text-0"></path></svg></g></svg></g><g transform="matrix(1,0,0,1,0,204.99159414240003)"><svg viewBox="0 0 126.51275454545456 14.666912008072655" height="14.666912008072655" width="126.51275454545456"><g transform="matrix(1,0,0,1,0,0)"><svg width="126.51275454545456" viewBox="2.85 -38.2 445.90999999999997 51.7" height="14.666912008072655" data-palette-color="#ff5c40"><path d="M14.9 0.35Q11.45 0.35 8.72-0.88 6-2.1 4.45-4.28 2.9-6.45 2.85-9.3L2.85-9.3 7.7-9.3Q7.95-6.85 9.73-5.18 11.5-3.5 14.9-3.5L14.9-3.5Q18.15-3.5 20.03-5.13 21.9-6.75 21.9-9.3L21.9-9.3Q21.9-11.3 20.8-12.55 19.7-13.8 18.05-14.45 16.4-15.1 13.6-15.85L13.6-15.85Q10.15-16.75 8.08-17.65 6-18.55 4.53-20.48 3.05-22.4 3.05-25.65L3.05-25.65Q3.05-28.5 4.5-30.7 5.95-32.9 8.58-34.1 11.2-35.3 14.6-35.3L14.6-35.3Q19.5-35.3 22.63-32.85 25.75-30.4 26.15-26.35L26.15-26.35 21.15-26.35Q20.9-28.35 19.05-29.88 17.2-31.4 14.15-31.4L14.15-31.4Q11.3-31.4 9.5-29.93 7.7-28.45 7.7-25.8L7.7-25.8Q7.7-23.9 8.78-22.7 9.85-21.5 11.43-20.88 13-20.25 15.85-19.45L15.85-19.45Q19.3-18.5 21.4-17.57 23.5-16.65 25-14.73 26.5-12.8 26.5-9.5L26.5-9.5Q26.5-6.95 25.15-4.7 23.8-2.45 21.15-1.05 18.5 0.35 14.9 0.35L14.9 0.35ZM45.15 0.45Q41.3 0.45 38.17-1.3 35.05-3.05 33.27-6.28 31.5-9.5 31.5-13.75L31.5-13.75Q31.5-17.95 33.32-21.18 35.15-24.4 38.3-26.13 41.45-27.85 45.35-27.85L45.35-27.85Q49.25-27.85 52.4-26.13 55.55-24.4 57.37-21.2 59.2-18 59.2-13.75L59.2-13.75Q59.2-9.5 57.32-6.28 55.45-3.05 52.25-1.3 49.05 0.45 45.15 0.45L45.15 0.45ZM45.15-3.55Q47.6-3.55 49.75-4.7 51.9-5.85 53.22-8.15 54.55-10.45 54.55-13.75L54.55-13.75Q54.55-17.05 53.25-19.35 51.95-21.65 49.85-22.78 47.75-23.9 45.3-23.9L45.3-23.9Q42.8-23.9 40.72-22.78 38.65-21.65 37.4-19.35 36.15-17.05 36.15-13.75L36.15-13.75Q36.15-10.4 37.37-8.1 38.6-5.8 40.65-4.67 42.7-3.55 45.15-3.55L45.15-3.55ZM76.34-27.4L76.34-23.65 70.59-23.65 70.59 0 66.05 0 66.05-23.65 62.49-23.65 62.49-27.4 66.05-27.4 66.05-29.35Q66.05-33.95 68.42-36.08 70.8-38.2 76.05-38.2L76.05-38.2 76.05-34.4Q73.05-34.4 71.82-33.23 70.59-32.05 70.59-29.35L70.59-29.35 70.59-27.4 76.34-27.4ZM94.34-23.65L87.19-23.65 87.19-7.5Q87.19-5.5 88.04-4.67 88.89-3.85 90.99-3.85L90.99-3.85 94.34-3.85 94.34 0 90.24 0Q86.44 0 84.54-1.75 82.64-3.5 82.64-7.5L82.64-7.5 82.64-23.65 79.09-23.65 79.09-27.4 82.64-27.4 82.64-34.3 87.19-34.3 87.19-27.4 94.34-27.4 94.34-23.65ZM131.84-27.4L136.34-27.4 127.79 0 123.09 0 116.49-21.75 109.89 0 105.19 0 96.59-27.4 101.24-27.4 107.54-4.4 114.34-27.4 118.99-27.4 125.64-4.35 131.84-27.4ZM139.14-13.8Q139.14-18 140.84-21.18 142.54-24.35 145.51-26.1 148.49-27.85 152.14-27.85L152.14-27.85Q155.74-27.85 158.39-26.3 161.04-24.75 162.34-22.4L162.34-22.4 162.34-27.4 166.94-27.4 166.94 0 162.34 0 162.34-5.1Q160.99-2.7 158.31-1.13 155.64 0.45 152.09 0.45L152.09 0.45Q148.44 0.45 145.49-1.35 142.54-3.15 140.84-6.4 139.14-9.65 139.14-13.8L139.14-13.8ZM162.34-13.75Q162.34-16.85 161.09-19.15 159.84-21.45 157.71-22.68 155.59-23.9 153.04-23.9L153.04-23.9Q150.49-23.9 148.39-22.7 146.29-21.5 145.04-19.2 143.79-16.9 143.79-13.8L143.79-13.8Q143.79-10.65 145.04-8.33 146.29-6 148.39-4.78 150.49-3.55 153.04-3.55L153.04-3.55Q155.59-3.55 157.71-4.78 159.84-6 161.09-8.33 162.34-10.65 162.34-13.75L162.34-13.75ZM179.19-22.95Q180.39-25.3 182.61-26.6 184.84-27.9 188.04-27.9L188.04-27.9 188.04-23.2 186.84-23.2Q179.19-23.2 179.19-14.9L179.19-14.9 179.19 0 174.64 0 174.64-27.4 179.19-27.4 179.19-22.95ZM218.28-14.75Q218.28-13.45 218.13-12L218.13-12 196.23-12Q196.48-7.95 199.01-5.68 201.53-3.4 205.13-3.4L205.13-3.4Q208.08-3.4 210.06-4.78 212.03-6.15 212.83-8.45L212.83-8.45 217.73-8.45Q216.63-4.5 213.33-2.02 210.03 0.45 205.13 0.45L205.13 0.45Q201.23 0.45 198.16-1.3 195.08-3.05 193.33-6.28 191.58-9.5 191.58-13.75L191.58-13.75Q191.58-18 193.28-21.2 194.98-24.4 198.06-26.13 201.13-27.85 205.13-27.85L205.13-27.85Q209.03-27.85 212.03-26.15 215.03-24.45 216.66-21.48 218.28-18.5 218.28-14.75L218.28-14.75ZM213.58-15.7Q213.58-18.3 212.43-20.18 211.28-22.05 209.31-23.03 207.33-24 204.93-24L204.93-24Q201.48-24 199.06-21.8 196.63-19.6 196.28-15.7L196.28-15.7 213.58-15.7ZM256.38-31.15L242.18-31.15 242.18-19.5 254.88-19.5 254.88-15.75 242.18-15.75 242.18-3.75 256.38-3.75 256.38 0 237.63 0 237.63-34.9 256.38-34.9 256.38-31.15ZM276.63-27.9Q281.63-27.9 284.73-24.88 287.82-21.85 287.82-16.15L287.82-16.15 287.82 0 283.32 0 283.32-15.5Q283.32-19.6 281.28-21.78 279.23-23.95 275.68-23.95L275.68-23.95Q272.07-23.95 269.95-21.7 267.82-19.45 267.82-15.15L267.82-15.15 267.82 0 263.28 0 263.28-27.4 267.82-27.4 267.82-23.5Q269.18-25.6 271.5-26.75 273.82-27.9 276.63-27.9L276.63-27.9ZM306.57-27.85Q310.12-27.85 312.8-26.3 315.47-24.75 316.77-22.4L316.77-22.4 316.77-27.4 321.37-27.4 321.37 0.6Q321.37 4.35 319.77 7.28 318.17 10.2 315.2 11.85 312.22 13.5 308.27 13.5L308.27 13.5Q302.87 13.5 299.27 10.95 295.67 8.4 295.02 4L295.02 4 299.52 4Q300.27 6.5 302.62 8.03 304.97 9.55 308.27 9.55L308.27 9.55Q312.02 9.55 314.4 7.2 316.77 4.85 316.77 0.6L316.77 0.6 316.77-5.15Q315.42-2.75 312.77-1.15 310.12 0.45 306.57 0.45L306.57 0.45Q302.92 0.45 299.95-1.35 296.97-3.15 295.27-6.4 293.57-9.65 293.57-13.8L293.57-13.8Q293.57-18 295.27-21.18 296.97-24.35 299.95-26.1 302.92-27.85 306.57-27.85L306.57-27.85ZM316.77-13.75Q316.77-16.85 315.52-19.15 314.27-21.45 312.15-22.68 310.02-23.9 307.47-23.9L307.47-23.9Q304.92-23.9 302.82-22.7 300.72-21.5 299.47-19.2 298.22-16.9 298.22-13.8L298.22-13.8Q298.22-10.65 299.47-8.33 300.72-6 302.82-4.78 304.92-3.55 307.47-3.55L307.47-3.55Q310.02-3.55 312.15-4.78 314.27-6 315.52-8.33 316.77-10.65 316.77-13.75L316.77-13.75ZM331.42-31.85Q330.12-31.85 329.22-32.75 328.32-33.65 328.32-34.95L328.32-34.95Q328.32-36.25 329.22-37.15 330.12-38.05 331.42-38.05L331.42-38.05Q332.67-38.05 333.55-37.15 334.42-36.25 334.42-34.95L334.42-34.95Q334.42-33.65 333.55-32.75 332.67-31.85 331.42-31.85L331.42-31.85ZM329.07-27.4L333.62-27.4 333.62 0 329.07 0 329.07-27.4ZM354.72-27.9Q359.72-27.9 362.82-24.88 365.92-21.85 365.92-16.15L365.92-16.15 365.92 0 361.42 0 361.42-15.5Q361.42-19.6 359.37-21.78 357.32-23.95 353.77-23.95L353.77-23.95Q350.17-23.95 348.04-21.7 345.92-19.45 345.92-15.15L345.92-15.15 345.92 0 341.37 0 341.37-27.4 345.92-27.4 345.92-23.5Q347.27-25.6 349.59-26.75 351.92-27.9 354.72-27.9L354.72-27.9ZM398.37-14.75Q398.37-13.45 398.22-12L398.22-12 376.32-12Q376.57-7.95 379.09-5.68 381.62-3.4 385.22-3.4L385.22-3.4Q388.17-3.4 390.14-4.78 392.12-6.15 392.92-8.45L392.92-8.45 397.82-8.45Q396.72-4.5 393.42-2.02 390.12 0.45 385.22 0.45L385.22 0.45Q381.32 0.45 378.24-1.3 375.17-3.05 373.42-6.28 371.67-9.5 371.67-13.75L371.67-13.75Q371.67-18 373.37-21.2 375.07-24.4 378.14-26.13 381.22-27.85 385.22-27.85L385.22-27.85Q389.12-27.85 392.12-26.15 395.12-24.45 396.74-21.48 398.37-18.5 398.37-14.75L398.37-14.75ZM393.67-15.7Q393.67-18.3 392.52-20.18 391.37-22.05 389.39-23.03 387.42-24 385.02-24L385.02-24Q381.57-24 379.14-21.8 376.72-19.6 376.37-15.7L376.37-15.7 393.67-15.7ZM429.36-14.75Q429.36-13.45 429.21-12L429.21-12 407.31-12Q407.56-7.95 410.09-5.68 412.61-3.4 416.21-3.4L416.21-3.4Q419.16-3.4 421.14-4.78 423.11-6.15 423.91-8.45L423.91-8.45 428.81-8.45Q427.71-4.5 424.41-2.02 421.11 0.45 416.21 0.45L416.21 0.45Q412.31 0.45 409.24-1.3 406.16-3.05 404.41-6.28 402.66-9.5 402.66-13.75L402.66-13.75Q402.66-18 404.36-21.2 406.06-24.4 409.14-26.13 412.21-27.85 416.21-27.85L416.21-27.85Q420.11-27.85 423.11-26.15 426.11-24.45 427.74-21.48 429.36-18.5 429.36-14.75L429.36-14.75ZM424.66-15.7Q424.66-18.3 423.51-20.18 422.36-22.05 420.39-23.03 418.41-24 416.01-24L416.01-24Q412.56-24 410.14-21.8 407.71-19.6 407.36-15.7L407.36-15.7 424.66-15.7ZM439.91-22.95Q441.11-25.3 443.34-26.6 445.56-27.9 448.76-27.9L448.76-27.9 448.76-23.2 447.56-23.2Q439.91-23.2 439.91-14.9L439.91-14.9 439.91 0 435.36 0 435.36-27.4 439.91-27.4 439.91-22.95Z" opacity="1" transform="matrix(1,0,0,1,0,0)" fill="#ff5c40" class="slogan-text-1" data-fill-palette-color="secondary" id="text-1"></path></svg></g></svg></g></svg></g></svg></g><g transform="matrix(1,0,0,1,24.163936118181823,0)"><svg viewBox="0 0 78.18488230909091 78.52501238928991" height="78.52501238928991" width="78.18488230909091"><g><svg xmlns="http://www.w3.org/2000/svg" xmlns:xlink="http://www.w3.org/1999/xlink" version="1.1" x="0" y="0" viewBox="2.3000000000000043 2.1854135008502102 95.29999999999998 95.71458649914979" enable-background="new 0 0 100 100" xml:space="preserve" height="78.52501238928991" width="78.18488230909091" class="icon-icon-0" data-fill-palette-color="accent" id="icon-0"><path d="M58.8 20.7c0 0 3 28-18 28.3v0c0 0-0.1 0-0.1 0 0 0-0.1 0-0.1 0v0c-21-0.2-18-28.3-18-28.3C23.6 2 39.2 2.1 40.8 2.2 42.3 2.1 58 2 58.8 20.7zM47 76.7l-4.3-12.1c7.5-10.4-0.5-11-2-11v0c0 0 0 0 0 0 0 0 0 0 0 0 0 0 0 0 0 0 0 0 0 0 0 0 0 0 0 0 0 0 0 0 0 0 0 0v0c-1.4 0-9.4 0.5-2 11l-4.3 12.1-7.3-23c0 0-9.2 4.4-17.3 9.6-6.2 3.9-7.3 8.1-7.5 14.1l0 3.8v16.7h38.4 0.1 0 0.1 23.5c-6-4.3-9.9-11.4-9.9-19.4 0-8 4-15.1 10-19.4-5.5-3.1-10.1-5.3-10.1-5.3L47 76.7zM84.9 83.3L84.9 83.3C84.8 83.2 84.8 83.2 84.9 83.3l-4.2-5c-0.2-0.2-0.3-0.5-0.3-0.7l-0.6-9.2h0c-0.1-0.9-0.8-1.5-1.7-1.5-0.9 0-1.6 0.6-1.7 1.5h0l0 0c0 0 0 0.1 0 0.1l-0.7 10.1c0 0.1 0 0.1 0 0.2l0 0h0c0 0 0 0 0 0 0 0 0 0 0 0.1 0 0.6 0.2 1.2 0.7 1.7 0.1 0.1 0.2 0.2 0.3 0.3l5.7 4.8 0 0c0.7 0.6 1.6 0.5 2.3-0.1C85.3 84.9 85.4 83.9 84.9 83.3L84.9 83.3zM97.6 78.4c0 10.7-8.7 19.4-19.4 19.4s-19.4-8.7-19.4-19.4 8.7-19.4 19.4-19.4S97.6 67.8 97.6 78.4zM92.6 78.4c0-7.9-6.4-14.4-14.4-14.4-7.9 0-14.4 6.4-14.4 14.4s6.4 14.4 14.4 14.4C86.2 92.8 92.6 86.4 92.6 78.4z" fill="#5dd8a1" data-fill-palette-color="accent"></path></svg></g></svg></g><g></g></svg></g></svg></g></svg></g></svg></g><defs></defs></svg><rect width="320" height="360" fill="none" stroke="none" visibility="hidden"></rect></g></svg></g></svg>